<svg width="44" height="44" viewBox="0 0 44 44" fill="none" xmlns="http://www.w3.org/2000/svg">
<path fill-rule="evenodd" clip-rule="evenodd" d="M22.0002 1.83333C10.8627 1.83333 1.8335 10.8625 1.8335 22C1.8335 33.1375 10.8627 42.1667 22.0002 42.1667C33.1377 42.1667 42.1668 33.1375 42.1668 22C42.1668 10.8625 33.1377 1.83333 22.0002 1.83333ZM30.7415 18.59C30.9025 18.406 31.025 18.1917 31.1019 17.9596C31.1788 17.7276 31.2085 17.4825 31.1893 17.2388C31.1701 16.9951 31.1024 16.7577 30.9901 16.5406C30.8777 16.3234 30.7231 16.131 30.5353 15.9745C30.3475 15.818 30.1303 15.7006 29.8965 15.6293C29.6627 15.558 29.417 15.5341 29.1738 15.5592C28.9306 15.5842 28.6949 15.6577 28.4805 15.7752C28.2662 15.8927 28.0774 16.0518 27.9255 16.2433L20.0422 25.7015L15.963 21.6205C15.6172 21.2865 15.1541 21.1018 14.6734 21.1059C14.1927 21.1101 13.7329 21.3029 13.393 21.6428C13.0531 21.9827 12.8603 22.4426 12.8561 22.9233C12.8519 23.404 13.0367 23.8671 13.3707 24.2128L18.8707 29.7128C19.0508 29.8929 19.2665 30.0334 19.5039 30.1254C19.7414 30.2175 19.9954 30.2591 20.2498 30.2475C20.5042 30.236 20.7535 30.1715 20.9816 30.0583C21.2097 29.9451 21.4118 29.7856 21.5748 29.59L30.7415 18.59Z" fill="#36B853"/>
</svg>
